<?xml version="1.0" encoding="utf-8"?>
<!-- Generator: Adobe Illustrator 15.0.0, SVG Export Plug-In . SVG Version: 6.00 Build 0)  -->
<!DOCTYPE svg PUBLIC "-//W3C//DTD SVG 1.1//EN" "http://www.w3.org/Graphics/SVG/1.1/DTD/svg11.dtd">
<svg version="1.1" id="Ebene_1" xmlns="http://www.w3.org/2000/svg" xmlns:xlink="http://www.w3.org/1999/xlink" x="0px" y="0px"
	 width="626px" height="552px" viewBox="0 0 626 552" enable-background="new 0 0 626 552" xml:space="preserve">
<path stroke="black" fill="white" id="Rest" fill-rule="evenodd" clip-rule="evenodd" d="M298.369,48.342c23.443-2.739,42.7-28.81,67.229-16.803
	c1.86,15.861-8.281,19.734-12.607,29.413c31.141,23.885,49.288-7.448,71.44-16.803c-0.039,11.166,1.596,24.003-4.198,29.415
	c35.695-12.299,81.321,5.62,105.051,29.414c0.771,9.174-3.423,13.368-12.582,12.611c14.346,44.117,51.036,59.247,58.829,117.671
	c-7.554,0.532-8.867-5.149-16.805-4.208c5.889,13.93,15.331,39.199,0,50.428c1.085,25.527,34.438,18.79,54.608,25.212
	c-0.817,31.409-27.82,36.61-50.415,46.235c5.251,18.728,22.409,55.951,0,54.635c9.538,43.691,53.1,53.334,63.026,96.636
	c-36.673-19.343-50.337-61.719-88.245-79.828c-11.879,12.169,4.049,32.165,4.194,46.218c-26.179-7.892-44.184-59.105-67.221-84.044
	c-8.367,0.052-5.347,11.46-16.831,8.408c-14.392-18.251-33.035-48.426-25.192-75.648c22.459,4.144,8.281,44.943,25.192,54.629
	c8.096-1.702,3.32-16.293,16.831-12.611c6.992,29.415,27.888,44.939,46.222,63.049c5.689-1.309,3.491-10.526,4.193-16.808
	c12.797-0.192,16.345,8.863,25.223,12.594c8.556-7.494-14.139-19.222-8.417-37.81c11.894-3.478,10.895,5.913,21.024,4.197
	c-6.218-12.001-8.617-27.814-16.805-37.824c10.58-16.025,44.85-8.358,50.415-29.416c-7.349-6.652-22.388-5.628-33.61-8.398
	c-10.766-13.059-17.426-30.197-21.024-50.438c6.072-9.3,10.266,5.29,12.611-4.194c1.746-19.948-14.339-22.088-12.611-42.025
	c8.799-1.779,11.133,2.876,16.831,4.196c-5.284-32.547-26.397-49.263-50.441-63.036c14.773-22.518-22.198-31.119,0-46.219
	c-14.978-32.488-61.292-24.107-96.659-16.818c0-5.602,0-11.205,0-16.805c-19.55,19.479-43.059,4.58-67.246-4.209
	c-2.263-16.27,10.72-17.301,12.611-29.415c-25.418,2.593-38.622,17.409-58.829,25.221c-13.389-23.034-37.287-35.56-67.229-42.025
	c-9.877,19.87,31.381,20.689,25.204,50.428c-22.859-6.036-52.7-19.747-79.841-8.403c3.667,24.271-35.067,36.048-46.232,58.829
	c14.59,22.812-11.918,87.485,4.208,126.073c7.839-28.579,5.722-67.11,21.012-88.242c16.982,18.033,4.951,65.081,16.805,88.242
	c19.295-17.125,7.862-64.985,33.623-75.645c-5.181,40.467-30.972,85.64-4.208,121.879c22.874-44.371,59.449-75.044,105.062-96.661
	c15.82,47.215,40.628,85.445,67.231,121.874c11.256-26.735,0.414-67.598,0-96.656c23.671,15.569,18.997,59.451,29.436,88.248
	c12.307-25.031-1.817-59.743,0-88.248c20.128,20.074,19.7,62.342,16.809,88.248c-6.433,57.751-50.592,88.199-100.866,105.053
	c15.837,37.399,23.318,83.146,29.426,130.289c-29.252-23.983-21.067-85.412-37.828-121.881
	c-47.182-45.965-127.624,16.145-198.95,16.762c-5.044,0.039-6.304-4.808-7.787-4.804c-9.177,0.021-24.164,0.467-32.798-3.552
	c-26.349-12.26-44.571-44.296-46.232-96.648c31.228-22.004,98.285-8.195,113.462-46.232c-11.287-32.538-29.83-78.879-16.805-121.864
	c-11.004-13.441-14.467,16.068-29.415,12.609c8.376-44.866,33.004-73.466,58.831-100.868c-3.548-10.899-18.433,8.083-25.208-4.196
	c15.998-27.419,60.278-26.571,100.854-29.427c-6.404-10.401-26.107-7.503-25.221-25.208C233.613,0.561,280.25,26.416,298.369,48.342
	z M130.272,317.302c19.612,21.016,43.312,37.937,58.829,63.043c53.203-21.05,106.919-41.574,138.674-84.048
	c-7.316-29.097-17.058-55.779-29.406-79.855c-56.005,12.63-72.49,64.795-105.06,100.86c-12.063-36.972-36.113-61.947-46.232-100.86
	C148.114,256.702,150.313,298.122,130.272,317.302z M273.15,355.126c-23.657,12.847-57.148,16.338-63.036,37.824
	c48.874-25.374,101.65-46.843,138.682-84.047c-0.467-5.132-1.256-9.958-8.417-8.413C327.344,322.273,298.637,341.279,273.15,355.126
	z M369.796,355.126c-13.51-4.696-3.265-33.133-16.805-37.824c-23.68,32.35-67.267,44.793-100.854,67.24
	c53.525,54.088,178.224-12.58,130.268-84.052C380.541,321.039,388.505,351.402,369.796,355.126z M159.687,376.145
	c13.732,15.644,18.645,50.957,42.025,37.807c-24.219-36.017-52.618-67.848-88.258-92.441
	C97.625,342.146,142.854,356.953,159.687,376.145z M29.419,342.515c0.011,46.217,34.813,81.419,50.427,88.248
	c41.631,3.542,38.741-21.002,56.596-30.325c-3.641,17.376-11.155,19.556-27.184,34.531c24.463-0.75,44.273-6.157,63.038-12.601
	C150.461,374.1,103.024,311.551,29.419,342.515z M210.115,409.761c12.893-6.733,36.716-2.509,37.83-21.019
	C231.767,392.191,211.99,392.017,210.115,409.761z"/>
<path stroke="black" fill="white" id="Nüstern" fill-rule="evenodd" clip-rule="evenodd" d="M115.337,356.873c-10.13,12.495-22.556-11.913-38.558,7.706
	C76.292,345.904,107.632,345.409,115.337,356.873z"/>
<path stroke="black" fill="white" id="Ohren" fill-rule="evenodd" clip-rule="evenodd" d="M431.478,148.68c8.838,28.836-13.328,58.103-34.691,69.395
	c12.268-11.969-12.972-25.893-3.862-34.697c16.772,0.721,7.021,6.709,7.709,19.275c17.863-7.85,23.749-27.658,26.994-50.12
	c-20.568,8.999-42.846,16.268-57.838,30.844C372.21,169.015,406.177,152.984,431.478,148.68z"/>
<path stroke="black" fill="white" id="Augen" fill-rule="evenodd" clip-rule="evenodd" d="M273.409,264.341c-1.508,15.641,5.979,22.288,23.13,19.275
	c-8.479,12.537-34.488,15.333-46.266,3.855c-4.473-30.844,45.222-40.215,57.833-19.277
	C305.64,272.888,289.616,258.667,273.409,264.341z"/>
</svg>
